<svg version="1.1" id="Layer_1" xmlns="http://www.w3.org/2000/svg" xmlns:xlink="http://www.w3.org/1999/xlink" x="0px" y="0px"
	 width="100%" viewBox="0 0 1076 445" enable-background="new 0 0 1076 445" xml:space="preserve">
<path fill="none" opacity="1.000000" stroke="none" 
	d="
M682.000000,446.000000 
	C454.666656,446.000000 227.833328,446.000000 1.000000,446.000000 
	C1.000000,297.666656 1.000000,149.333328 1.000000,1.000000 
	C359.666656,1.000000 718.333313,1.000000 1077.000000,1.000000 
	C1077.000000,149.333328 1077.000000,297.666656 1077.000000,446.000000 
	C945.500000,446.000000 814.000000,446.000000 682.000000,446.000000 
M399.213257,324.981812 
	C368.573883,334.704224 339.890076,330.944946 312.407227,311.687408 
	C315.182343,320.460785 309.715027,322.795868 303.916901,325.136658 
	C293.801453,329.220337 283.229797,329.580627 273.002533,327.156250 
	C266.181641,325.539398 259.993256,321.254120 252.963882,317.896545 
	C237.198792,328.297272 231.981171,330.209534 214.041656,329.886841 
	C192.518250,329.499756 172.288559,318.029480 167.055130,293.621094 
	C166.688934,291.913208 166.036316,289.929626 164.836899,288.789825 
	C153.281631,277.808868 144.481461,265.087280 139.719086,249.520691 
	C138.695618,249.974884 137.909119,250.212479 137.241516,250.637039 
	C128.406540,256.255493 118.905258,260.350952 108.431107,261.101166 
	C97.330490,261.896332 86.170959,262.056427 75.036079,262.086090 
	C71.046196,262.096710 69.949371,263.289337 69.991631,267.212067 
	C70.183678,285.036743 70.075783,302.864655 70.075806,320.691406 
	C70.075813,322.974640 70.075813,325.257874 70.075813,328.155762 
	C62.606060,328.155762 55.720749,328.155762 48.143044,328.155762 
	C49.121338,330.065948 49.625221,331.243073 50.290253,332.320740 
	C94.579063,404.091461 182.969101,441.585205 265.437531,423.617798 
	C315.316833,412.750580 355.652222,386.790833 386.736420,346.480591 
	C391.842285,339.859222 395.678589,332.258881 400.436371,325.094116 
	C400.285370,325.055878 400.134338,325.017639 399.213257,324.981812 
M395.652435,233.205673 
	C397.333771,233.924377 399.007538,234.661530 400.697632,235.359009 
	C421.959290,244.133514 431.070587,257.878479 430.905487,280.901764 
	C430.894379,282.450439 431.037231,284.000244 431.159882,286.667450 
	C435.841492,281.766724 439.903839,277.877441 443.531372,273.617859 
	C447.399200,269.076141 451.337952,265.056244 457.957703,265.639099 
	C458.067108,265.648712 458.223724,265.121643 458.493195,264.567719 
	C457.525360,264.005890 456.548798,263.431946 455.565704,262.869385 
	C441.604462,254.880234 433.591888,243.285614 432.261017,226.872650 
	C430.851501,209.489792 440.156006,191.210342 455.770844,183.313690 
	C474.555542,173.813995 494.339996,173.036652 514.614380,177.141968 
	C529.241821,180.103836 541.098877,187.415207 550.367371,199.131851 
	C552.857117,202.279297 553.275146,204.477524 550.023499,207.487396 
	C545.271057,211.886444 540.876892,216.702942 536.603149,221.580811 
	C531.611450,227.278183 526.647034,232.746094 517.431213,231.266556 
	C512.408020,226.432693 507.401489,221.496536 500.236450,220.029007 
	C494.141846,218.780716 488.041687,218.261536 481.023895,222.425278 
	C482.716400,223.423294 483.488953,224.139145 484.385803,224.368057 
	C495.585052,227.226608 506.802307,230.014587 518.708435,233.072250 
	C520.860657,233.963837 523.022217,234.833740 525.163757,235.750366 
	C545.734375,244.555328 554.867981,258.568359 554.348328,280.465363 
	C554.286438,283.072754 554.339844,285.682892 554.339844,288.408752 
	C558.708618,288.408752 562.738220,288.408752 566.690125,288.408752 
	C566.690125,249.409088 566.690125,210.854874 566.690125,171.948486 
	C564.285461,171.948486 562.305908,171.948502 560.326355,171.948502 
	C515.837158,171.948486 471.347595,171.877655 426.859131,172.060104 
	C422.503723,172.077957 420.906494,170.633087 419.795532,166.614975 
	C412.458374,140.077728 400.011505,116.068504 382.356842,94.983467 
	C332.746246,35.733402 268.682922,11.105514 192.886200,21.607866 
	C129.252686,30.424896 80.561363,64.611221 47.135529,119.840752 
	C44.933712,123.478798 42.994102,127.275528 40.441299,131.885544 
	C43.297276,131.885544 45.062401,131.884460 46.827526,131.885696 
	C64.323242,131.897903 81.824509,131.641647 99.313042,132.002411 
	C115.216232,132.330490 130.011292,136.808899 142.107010,147.467117 
	C147.980286,152.642380 152.656113,159.176605 157.825958,165.041077 
	C182.309219,139.690002 212.258926,129.610214 246.970215,139.291458 
	C281.857452,149.021744 302.126404,173.509781 310.317871,209.085922 
	C311.090546,207.567062 311.595398,206.720200 311.968628,205.818832 
	C316.440430,195.019531 324.025543,187.073853 334.548737,182.194107 
	C352.784912,173.737747 371.801056,173.200424 391.215210,177.188385 
	C406.052734,180.236237 418.011566,187.669479 427.194000,199.733505 
	C429.278992,202.472824 429.480255,204.395447 426.865234,206.965439 
	C421.640686,212.099976 416.581635,217.423813 411.740692,222.921692 
	C407.237091,228.036514 402.644135,232.598221 394.365540,231.318649 
	C393.088013,230.282974 391.698029,229.358047 390.551331,228.193558 
	C383.370026,220.900681 374.701569,218.017883 364.649353,219.604279 
	C362.723236,219.908264 360.957397,221.227966 359.117615,222.079086 
	C360.722748,223.278549 362.165619,225.115814 363.959778,225.572174 
	C374.263885,228.193115 384.651276,230.486649 395.652435,233.205673 
M1012.960815,283.500183 
	C1012.915222,264.672119 1012.937866,245.843185 1012.702393,227.017502 
	C1012.682129,225.404526 1011.212585,222.684647 1009.966614,222.391632 
	C1000.744873,220.223038 990.811157,225.806305 988.517517,235.001129 
	C986.965759,241.221466 986.449829,247.825623 986.381104,254.267838 
	C986.137451,277.093903 986.168335,299.925262 986.384460,322.751862 
	C986.426819,327.224915 985.059448,328.416809 980.708435,328.332550 
	C967.216248,328.071198 953.709839,328.005829 940.221680,328.356262 
	C935.175049,328.487366 933.763550,327.098846 933.787292,321.984802 
	C934.005371,274.996307 933.980835,228.006439 933.890137,181.017227 
	C933.882935,177.270020 935.056641,176.086151 938.754578,176.135468 
	C951.583008,176.306580 964.415100,176.201736 977.245789,176.202133 
	C984.272888,176.202347 984.266541,176.203674 985.423828,183.014847 
	C985.463074,183.246002 985.899841,183.409637 985.120422,182.804871 
	C993.887451,180.115280 1001.925232,177.684082 1009.931152,175.152237 
	C1011.004028,174.812943 1011.916199,173.965622 1012.902771,173.353561 
	C1012.739197,172.999008 1012.575623,172.644470 1012.411987,172.289917 
	C931.373962,172.289917 850.335938,172.289917 768.653687,172.289917 
	C768.653687,224.344635 768.653687,276.059967 768.653687,328.236572 
	C766.200623,328.236572 764.390625,328.236572 762.580627,328.236572 
	C750.249817,328.236725 737.916260,328.383698 725.589722,328.154175 
	C721.497681,328.077972 720.128113,329.256805 720.175781,333.473694 
	C720.382751,351.800903 720.257202,370.131836 720.280151,388.461365 
	C720.281982,389.913910 720.494690,391.366180 720.614319,392.881378 
	C721.976013,393.050812 722.953674,393.278320 723.931396,393.278809 
	C760.257263,393.297791 796.583252,393.250580 832.908752,393.365173 
	C836.620239,393.376892 837.282288,391.847748 837.262329,388.604553 
	C837.150696,370.442322 837.217224,352.278992 837.187500,334.116089 
	C837.185425,332.850403 836.896606,331.585175 836.738708,330.299805 
	C813.433289,329.596466 793.738342,322.624390 786.447205,298.496704 
	C778.508972,272.227539 785.926086,251.198257 811.877808,239.248642 
	C808.767090,237.912811 805.121887,237.498642 803.566223,235.476685 
	C797.380310,227.436996 791.742065,218.963791 786.191345,210.461609 
	C785.420349,209.280701 785.562988,206.319885 786.488770,205.408981 
	C792.047180,199.940369 797.439636,194.062515 803.843811,189.737503 
	C826.926392,174.148895 852.340027,171.295547 878.889893,178.290451 
	C892.639282,181.912918 903.482544,190.174622 908.168091,203.882004 
	C911.018616,212.221115 912.225830,221.377731 912.636108,230.238205 
	C913.336670,245.369354 912.819763,260.556396 912.845886,275.719910 
	C912.848877,277.457611 913.053650,279.194977 913.122803,280.275208 
	C917.277161,281.248657 920.813599,281.635925 923.934692,282.984467 
	C925.638489,283.720612 927.569519,285.963013 927.801575,287.735168 
	C929.075928,297.467957 929.989319,307.256195 930.668579,317.050232 
	C930.774353,318.575531 929.438049,320.848236 928.087769,321.717407 
	C921.534363,325.935791 914.321716,328.330750 906.410522,328.240936 
	C903.011719,328.202332 899.612122,328.234467 896.303894,328.234467 
	C896.303894,350.434052 896.303894,371.665070 896.303894,392.842010 
	C935.280823,392.842010 973.822998,392.842010 1012.960754,392.842010 
	C1012.960754,356.423889 1012.960754,320.462097 1012.960815,283.500183 
M639.260742,188.200058 
	C633.849060,172.491776 628.437439,156.783493 623.090088,141.261917 
	C607.528870,141.261917 592.435425,141.261917 577.247253,141.261917 
	C577.247253,200.633636 577.247253,259.690125 577.247253,318.816040 
	C587.980774,318.816040 598.383179,318.816040 609.170349,318.816040 
	C609.170349,316.682404 609.170410,314.879730 609.170410,313.077087 
	C609.170227,277.912720 609.170105,242.748367 609.169128,207.584015 
	C609.169128,206.584106 608.989929,205.545822 609.204895,204.595703 
	C609.397949,203.742294 610.019165,202.985748 610.451477,202.186478 
	C611.218262,202.674728 612.183228,203.012436 612.699158,203.691315 
	C613.277710,204.452499 613.467224,205.516342 613.796875,206.458694 
	C626.481689,242.723267 639.219421,278.969574 651.747986,315.288086 
	C652.860168,318.512177 654.439941,319.273682 657.494080,319.200378 
	C664.489563,319.032562 671.498718,318.967926 678.488342,319.230896 
	C681.737793,319.353149 683.125061,318.164307 684.135437,315.187408 
	C689.321045,299.908386 694.709717,284.698242 700.032593,269.465851 
	C707.385681,248.423523 714.724854,227.376266 722.136719,206.354660 
	C722.692078,204.779434 723.781189,203.392349 724.622131,201.917801 
	C725.236145,202.095642 725.850098,202.273499 726.464111,202.451340 
	C726.464111,241.242950 726.464111,280.034576 726.464111,318.820007 
	C738.146057,318.820007 748.898865,318.820007 759.667786,318.820007 
	C759.667786,259.433960 759.667786,200.377640 759.667786,140.947479 
	C746.049316,140.947479 732.742065,141.075638 719.440430,140.859970 
	C715.991333,140.804047 714.624573,141.912933 713.523132,145.166107 
	C699.762024,185.812454 685.832336,226.401749 671.891174,266.986908 
	C671.332458,268.613617 670.231812,270.054230 669.383606,271.581543 
	C668.884216,271.504059 668.384766,271.426605 667.885315,271.349152 
	C658.452576,243.872086 649.019836,216.395035 639.260742,188.200058 
M147.862350,167.715942 
	C145.641144,164.608231 143.735947,161.203766 141.144302,158.443924 
	C129.606308,146.157135 114.785805,141.292465 98.432014,141.047119 
	C75.785568,140.707382 53.130337,140.946609 30.478886,140.963623 
	C29.056265,140.964691 27.633812,141.188309 26.386826,141.293564 
	C26.386826,200.822128 26.386826,259.844879 26.386826,318.860107 
	C38.079281,318.860107 49.347103,318.860107 61.251717,318.860107 
	C61.251717,296.882080 61.251717,275.180298 61.251717,253.043106 
	C74.847977,253.043106 87.846199,253.679611 100.759369,252.902603 
	C123.407234,251.539856 141.910828,242.645111 150.651733,220.191544 
	C157.424973,202.792648 156.447815,185.296219 147.862350,167.715942 
M906.144226,289.468140 
	C905.461426,286.630737 904.246643,283.805725 904.180481,280.954010 
	C903.681946,259.485992 904.063049,237.974655 902.814819,216.555801 
	C902.096497,204.228256 894.972900,194.816696 883.456482,189.410995 
	C871.948608,184.009354 859.637573,183.282333 847.273621,184.113113 
	C828.688354,185.361923 812.498840,192.360245 799.066711,205.507721 
	C796.800659,207.725845 796.709961,209.376099 798.555359,211.853439 
	C802.132935,216.656235 805.487183,221.629761 808.821106,226.608124 
	C810.680786,229.385086 812.426697,229.422302 814.889648,227.241638 
	C817.869812,224.603058 820.970764,222.013901 824.338989,219.916504 
	C835.802979,212.777817 848.192627,209.885132 861.566589,212.963776 
	C867.444763,214.316910 870.486206,217.939133 870.869507,223.225082 
	C871.312195,229.329376 869.341064,232.986572 863.479919,235.402405 
	C859.517517,237.035629 855.293274,238.099319 851.115356,239.131058 
	C840.155212,241.837677 828.801453,243.402664 818.247498,247.206619 
	C796.953247,254.881668 789.702026,269.900909 794.978088,293.510040 
	C798.152893,307.716522 807.908142,316.256927 821.983459,319.121246 
	C841.433289,323.079193 859.277893,321.435822 871.132324,302.410370 
	C872.979004,299.446716 874.122192,301.161163 875.693848,303.354187 
	C878.818115,307.713623 881.772034,313.043884 886.175354,315.467316 
	C896.433716,321.113037 907.709656,320.322296 918.609009,316.596619 
	C919.978882,316.128326 921.460144,313.447754 921.414795,311.833618 
	C921.251648,306.024628 920.404358,300.237701 919.922424,294.433563 
	C919.686340,291.590149 918.814453,290.382233 915.513611,290.823273 
	C912.705566,291.198425 909.728088,290.305359 906.144226,289.468140 
M189.704514,312.853302 
	C196.829361,315.432953 203.787247,319.452209 211.112732,320.301819 
	C227.977249,322.257751 243.388748,318.924500 253.057144,302.714966 
	C255.056549,299.362823 256.659424,300.778687 257.801605,303.581879 
	C260.079163,309.171600 263.541504,313.765106 269.239624,316.178955 
	C279.536957,320.541107 289.999786,320.020966 300.495087,316.886383 
	C303.136597,316.097504 304.136688,314.426147 303.768799,311.625580 
	C303.075165,306.345398 302.333344,301.046539 302.126770,295.735443 
	C301.968079,291.654205 300.959961,290.208862 296.473694,291.016357 
	C289.168396,292.331268 286.293488,289.554321 286.215820,282.113220 
	C286.151489,275.950684 286.302399,269.784973 286.183777,263.624023 
	C285.879395,247.818375 286.188873,231.955795 284.888336,216.228821 
	C283.866150,203.867691 276.815643,194.553909 265.276001,189.256241 
	C253.741165,183.960831 241.417175,183.254288 229.055344,184.129486 
	C210.840424,185.419113 194.932434,192.302551 181.639648,205.041428 
	C179.166687,207.411331 178.549393,209.245560 180.863342,212.157639 
	C183.963745,216.059433 186.607529,220.324310 189.442902,224.436386 
	C193.455017,230.255112 193.409546,230.205444 198.738525,225.623795 
	C211.254868,214.862640 225.564545,209.726883 242.111389,212.584641 
	C249.171906,213.804031 252.547485,217.485031 252.952255,223.107224 
	C253.449661,230.015823 251.336502,233.807419 243.841309,236.025146 
	C235.107407,238.609406 226.072296,240.183548 217.155853,242.141144 
	C206.195160,244.547546 195.640762,247.773254 186.547424,254.820572 
	C170.534744,267.230316 172.308777,300.655182 189.704514,312.853302 
M982.856323,200.378036 
	C981.217834,202.436493 979.579346,204.494949 977.940796,206.553406 
	C977.523743,206.371185 977.106628,206.188965 976.689575,206.006729 
	C976.574890,204.599930 976.376038,203.194000 976.361267,201.786148 
	C976.315613,197.453339 976.524902,193.106598 976.217346,188.795074 
	C976.132812,187.610062 974.607605,185.570099 973.704285,185.548309 
	C963.920410,185.312378 954.128662,185.400955 944.146484,185.400955 
	C944.146484,230.274796 944.146484,274.492493 944.146484,318.783325 
	C955.352112,318.783325 966.237793,318.783325 977.551331,318.783325 
	C977.551331,316.445953 977.539734,314.472687 977.553101,312.499573 
	C977.710510,289.337280 977.568115,266.166107 978.245605,243.018951 
	C978.414246,237.256470 980.267456,231.047852 983.026855,225.954758 
	C989.770752,213.507339 1002.417664,211.023315 1016.073975,213.640778 
	C1026.271240,215.595230 1030.219727,222.891953 1030.375610,237.346924 
	C1030.395264,239.180054 1030.385864,241.013519 1030.385864,242.846832 
	C1030.386353,266.179932 1030.386108,289.513031 1030.386108,312.846130 
	C1030.386108,314.802338 1030.386108,316.758545 1030.386108,318.824585 
	C1041.986816,318.824585 1052.898926,318.824585 1064.009399,318.824585 
	C1064.098877,317.205841 1064.233276,315.902893 1064.233521,314.599945 
	C1064.240356,286.766907 1064.297119,258.933563 1064.164307,231.101105 
	C1064.141357,226.302139 1063.715698,221.422119 1062.754028,216.727432 
	C1060.588745,206.156982 1056.100586,196.824371 1046.656006,190.687592 
	C1031.421143,180.788467 998.242737,179.760696 982.856323,200.378036 
M533.132507,250.327576 
	C526.214844,247.170197 519.518311,243.321503 512.326599,241.020706 
	C502.057587,237.735428 491.335724,235.887939 480.986755,232.820862 
	C475.734131,231.264160 473.007355,226.444962 473.244568,221.753738 
	C473.493408,216.832809 476.487946,213.190216 482.192230,211.699432 
	C495.812012,208.139969 508.334442,210.274780 519.009888,219.864441 
	C521.769958,222.343842 523.666138,222.344284 526.065063,219.649643 
	C529.608582,215.669266 533.340942,211.857086 536.990112,207.970673 
	C542.244629,202.374451 542.243591,202.373428 536.361694,197.301208 
	C517.901855,181.382477 479.588318,179.078262 458.587341,192.629257 
	C446.214294,200.613022 441.008240,212.074738 441.847015,226.623764 
	C442.649170,240.537857 449.843750,250.268188 462.107208,255.740829 
	C470.235626,259.368195 479.115936,261.328247 487.691101,263.931000 
	C493.560913,265.712616 499.653870,266.886292 505.335938,269.122406 
	C510.746063,271.251495 513.406982,276.127472 512.811340,280.918396 
	C512.118164,286.494202 508.800629,289.945282 503.520782,291.471161 
	C501.138458,292.159668 498.655731,292.750885 496.193451,292.871063 
	C481.927277,293.567352 469.655304,289.127472 459.988312,278.322083 
	C458.228638,276.355194 456.365021,274.269073 453.803925,276.852905 
	C447.842957,282.866638 442.067383,289.064117 436.273438,295.127808 
	C439.768066,302.113373 444.862000,306.884766 451.075928,310.292542 
	C473.341827,322.503052 496.737366,324.698364 520.448059,315.743927 
	C547.931885,305.364594 554.832520,269.998383 533.132507,250.327576 
M370.886475,265.452332 
	C374.948395,266.876007 379.173401,267.960236 383.029419,269.812592 
	C387.464233,271.942963 389.548584,275.900757 389.137085,280.895691 
	C388.745514,285.648804 386.233643,289.116272 381.805695,290.722809 
	C378.720337,291.842316 375.389984,292.695129 372.129608,292.853088 
	C357.845337,293.545135 345.648499,288.844635 336.098083,277.966461 
	C334.364075,275.991333 332.496460,274.556702 330.251434,276.834808 
	C324.309052,282.864777 318.530365,289.056061 311.894684,296.013397 
	C316.189880,300.269104 319.737976,304.751312 324.183899,308.007690 
	C337.314545,317.625122 352.585114,320.688599 368.516693,320.825653 
	C382.418030,320.945251 395.631348,318.351654 407.245941,309.980011 
	C427.456879,295.412201 428.943848,257.284424 401.695953,245.627625 
	C395.316437,242.898453 388.530701,241.045334 381.825043,239.171539 
	C374.149719,237.026810 366.234375,235.690720 358.648621,233.291031 
	C351.850830,231.140579 349.385406,227.037445 349.884644,221.064850 
	C350.309692,215.980286 353.546173,212.660477 360.245361,211.223877 
	C373.196289,208.446671 385.131683,210.605850 395.200806,219.659378 
	C398.049896,222.221054 399.998779,222.481293 402.622406,219.508163 
	C406.807343,214.765823 411.182953,210.179611 415.672211,205.723099 
	C417.888397,203.523056 417.802551,201.660736 415.525635,199.936432 
	C411.169678,196.637665 407.069336,192.632126 402.177185,190.475342 
	C382.404449,181.758270 362.046967,181.207565 341.951385,189.093018 
	C325.773468,195.441193 317.855713,208.120041 318.166504,224.775467 
	C318.458252,240.411240 326.761780,251.933105 343.187042,257.871490 
	C351.902283,261.022400 361.101105,262.835754 370.886475,265.452332 
M659.983215,221.514908 
	C662.618469,229.051620 665.253784,236.588318 667.889038,244.125031 
	C668.427551,244.081314 668.966064,244.037613 669.504578,243.993896 
	C677.672668,220.190414 685.840759,196.386917 694.128540,172.234711 
	C676.807434,172.234711 660.225037,172.234711 643.018555,172.234711 
	C648.692871,188.711166 654.212830,204.739471 659.983215,221.514908 
M317.189758,250.244888 
	C314.838226,246.272293 312.486725,242.299698 309.781097,237.728882 
	C307.853088,250.817688 302.567108,262.010590 296.180420,272.829742 
	C294.915344,274.972839 295.235474,278.051666 294.889099,280.283264 
	C299.232178,281.250397 302.774933,281.563446 305.907410,282.864349 
	C309.365112,284.300323 311.124542,282.942627 313.555878,280.737427 
	C320.119537,274.784241 323.658417,264.512329 334.661713,265.693359 
	C328.935913,260.692139 323.282013,255.753708 317.189758,250.244888 
M373.569794,283.395966 
	C375.494720,282.335236 377.419678,281.274475 379.344604,280.213745 
	C378.268402,279.098450 377.376434,277.335480 376.087311,276.968811 
	C364.183746,273.582886 352.211578,270.438171 340.036407,267.163361 
	C344.043793,277.690216 358.984772,285.042023 373.569794,283.395966 
M499.940186,282.646545 
	C500.911377,281.689819 501.882599,280.733124 502.853821,279.776428 
	C501.649567,278.750397 500.599579,277.178680 499.215851,276.787445 
	C490.612732,274.355011 481.925262,272.222839 473.286591,269.913269 
	C470.060516,269.050781 466.890381,267.979095 463.140472,266.833496 
	C469.357300,279.345367 485.075928,286.086395 499.940186,282.646545 
M847.915649,230.392517 
	C850.963379,229.620453 854.119080,229.119781 857.015869,227.968048 
	C858.593628,227.340775 859.732117,225.608749 861.068787,224.375031 
	C859.478210,223.265350 857.757385,221.058517 856.318787,221.229279 
	C848.670349,222.137192 840.844666,222.867493 833.573120,225.197174 
	C828.286133,226.891022 822.914490,229.938446 819.888306,235.609467 
	C829.236755,233.884766 838.164001,232.237747 847.915649,230.392517 
M705.811096,279.223969 
	C704.804871,282.274109 703.798584,285.324280 702.621460,288.892395 
	C706.204773,288.892395 709.022278,288.689026 711.798157,288.941864 
	C715.598877,289.288055 717.076294,288.096161 716.949585,284.007080 
	C716.667297,274.896790 716.909241,265.770874 716.884766,256.651459 
	C716.880676,255.111282 716.613342,253.571793 716.467651,252.031982 
	C716.104553,251.996628 715.741394,251.961258 715.378296,251.925888 
	C712.269470,260.777618 709.160583,269.629333 705.811096,279.223969 
M631.450195,286.089783 
	C627.347778,274.450684 623.245300,262.811584 619.142883,251.172485 
	C618.885620,251.263611 618.628418,251.354736 618.371216,251.445862 
	C618.371216,263.777710 618.371216,276.109558 618.371216,288.846771 
	C622.419434,288.846771 626.057983,288.950897 629.680603,288.756958 
	C630.386536,288.719177 631.030457,287.522705 631.450195,286.089783 
z"/>
<path fill="#004AAC" opacity="1.000000" stroke="none" 
	d="
M395.051819,231.604843 
	C402.644135,232.598221 407.237091,228.036514 411.740692,222.921692 
	C416.581635,217.423813 421.640686,212.099976 426.865234,206.965439 
	C429.480255,204.395447 429.278992,202.472824 427.194000,199.733505 
	C418.011566,187.669479 406.052734,180.236237 391.215210,177.188385 
	C371.801056,173.200424 352.784912,173.737747 334.548737,182.194107 
	C324.025543,187.073853 316.440430,195.019531 311.968628,205.818832 
	C311.595398,206.720200 311.090546,207.567062 310.317871,209.085922 
	C302.126404,173.509781 281.857452,149.021744 246.970215,139.291458 
	C212.258926,129.610214 182.309219,139.690002 157.825958,165.041077 
	C152.656113,159.176605 147.980286,152.642380 142.107010,147.467117 
	C130.011292,136.808899 115.216232,132.330490 99.313042,132.002411 
	C81.824509,131.641647 64.323242,131.897903 46.827526,131.885696 
	C45.062401,131.884460 43.297276,131.885544 40.441299,131.885544 
	C42.994102,127.275528 44.933712,123.478798 47.135529,119.840752 
	C80.561363,64.611221 129.252686,30.424896 192.886200,21.607866 
	C268.682922,11.105514 332.746246,35.733402 382.356842,94.983467 
	C400.011505,116.068504 412.458374,140.077728 419.795532,166.614975 
	C420.906494,170.633087 422.503723,172.077957 426.859131,172.060104 
	C471.347595,171.877655 515.837158,171.948486 560.326355,171.948502 
	C562.305908,171.948502 564.285461,171.948486 566.690125,171.948486 
	C566.690125,210.854874 566.690125,249.409088 566.690125,288.408752 
	C562.738220,288.408752 558.708618,288.408752 554.339844,288.408752 
	C554.339844,285.682892 554.286438,283.072754 554.348328,280.465363 
	C554.867981,258.568359 545.734375,244.555328 525.163757,235.750366 
	C523.022217,234.833740 520.860657,233.963837 518.367065,232.756927 
	C518.038757,232.189789 518.044434,231.937790 518.042603,231.685638 
	C526.647034,232.746094 531.611450,227.278183 536.603149,221.580811 
	C540.876892,216.702942 545.271057,211.886444 550.023499,207.487396 
	C553.275146,204.477524 552.857117,202.279297 550.367371,199.131851 
	C541.098877,187.415207 529.241821,180.103836 514.614380,177.141968 
	C494.339996,173.036652 474.555542,173.813995 455.770844,183.313690 
	C440.156006,191.210342 430.851501,209.489792 432.261017,226.872650 
	C433.591888,243.285614 441.604462,254.880234 455.565704,262.869385 
	C456.548798,263.431946 457.525360,264.005890 458.493195,264.567719 
	C458.223724,265.121643 458.067108,265.648712 457.957703,265.639099 
	C451.337952,265.056244 447.399200,269.076141 443.531372,273.617859 
	C439.903839,277.877441 435.841492,281.766724 431.159882,286.667450 
	C431.037231,284.000244 430.894379,282.450439 430.905487,280.901764 
	C431.070587,257.878479 421.959290,244.133514 400.697632,235.359009 
	C399.007538,234.661530 397.333771,233.924377 395.336304,232.833710 
	C395.037262,232.176361 395.047791,231.890717 395.051819,231.604843 
z"/>
<path fill="#004AAC" opacity="1.000000" stroke="none" 
	d="
M400.101685,325.110992 
	C395.678589,332.258881 391.842285,339.859222 386.736420,346.480591 
	C355.652222,386.790833 315.316833,412.750580 265.437531,423.617798 
	C182.969101,441.585205 94.579063,404.091461 50.290253,332.320740 
	C49.625221,331.243073 49.121338,330.065948 48.143044,328.155762 
	C55.720749,328.155762 62.606060,328.155762 70.075813,328.155762 
	C70.075813,325.257874 70.075813,322.974640 70.075806,320.691406 
	C70.075783,302.864655 70.183678,285.036743 69.991631,267.212067 
	C69.949371,263.289337 71.046196,262.096710 75.036079,262.086090 
	C86.170959,262.056427 97.330490,261.896332 108.431107,261.101166 
	C118.905258,260.350952 128.406540,256.255493 137.241516,250.637039 
	C137.909119,250.212479 138.695618,249.974884 139.719086,249.520691 
	C144.481461,265.087280 153.281631,277.808868 164.836899,288.789825 
	C166.036316,289.929626 166.688934,291.913208 167.055130,293.621094 
	C172.288559,318.029480 192.518250,329.499756 214.041656,329.886841 
	C231.981171,330.209534 237.198792,328.297272 252.963882,317.896545 
	C259.993256,321.254120 266.181641,325.539398 273.002533,327.156250 
	C283.229797,329.580627 293.801453,329.220337 303.916901,325.136658 
	C309.715027,322.795868 315.182343,320.460785 312.407227,311.687408 
	C339.890076,330.944946 368.573883,334.704224 399.627930,325.013428 
	C400.042603,325.045074 400.101654,325.110992 400.101685,325.110992 
z"/>
<path fill="#0049AB" opacity="1.000000" stroke="none" 
	d="
M1012.960815,284.000244 
	C1012.960754,320.462097 1012.960754,356.423889 1012.960754,392.842010 
	C973.822998,392.842010 935.280823,392.842010 896.303894,392.842010 
	C896.303894,371.665070 896.303894,350.434052 896.303894,328.234467 
	C899.612122,328.234467 903.011719,328.202332 906.410522,328.240936 
	C914.321716,328.330750 921.534363,325.935791 928.087769,321.717407 
	C929.438049,320.848236 930.774353,318.575531 930.668579,317.050232 
	C929.989319,307.256195 929.075928,297.467957 927.801575,287.735168 
	C927.569519,285.963013 925.638489,283.720612 923.934692,282.984467 
	C920.813599,281.635925 917.277161,281.248657 913.122803,280.275208 
	C913.053650,279.194977 912.848877,277.457611 912.845886,275.719910 
	C912.819763,260.556396 913.336670,245.369354 912.636108,230.238205 
	C912.225830,221.377731 911.018616,212.221115 908.168091,203.882004 
	C903.482544,190.174622 892.639282,181.912918 878.889893,178.290451 
	C852.340027,171.295547 826.926392,174.148895 803.843811,189.737503 
	C797.439636,194.062515 792.047180,199.940369 786.488770,205.408981 
	C785.562988,206.319885 785.420349,209.280701 786.191345,210.461609 
	C791.742065,218.963791 797.380310,227.436996 803.566223,235.476685 
	C805.121887,237.498642 808.767090,237.912811 811.877808,239.248642 
	C785.926086,251.198257 778.508972,272.227539 786.447205,298.496704 
	C793.738342,322.624390 813.433289,329.596466 836.738708,330.299805 
	C836.896606,331.585175 837.185425,332.850403 837.187500,334.116089 
	C837.217224,352.278992 837.150696,370.442322 837.262329,388.604553 
	C837.282288,391.847748 836.620239,393.376892 832.908752,393.365173 
	C796.583252,393.250580 760.257263,393.297791 723.931396,393.278809 
	C722.953674,393.278320 721.976013,393.050812 720.614319,392.881378 
	C720.494690,391.366180 720.281982,389.913910 720.280151,388.461365 
	C720.257202,370.131836 720.382751,351.800903 720.175781,333.473694 
	C720.128113,329.256805 721.497681,328.077972 725.589722,328.154175 
	C737.916260,328.383698 750.249817,328.236725 762.580627,328.236572 
	C764.390625,328.236572 766.200623,328.236572 768.653687,328.236572 
	C768.653687,276.059967 768.653687,224.344635 768.653687,172.289917 
	C850.335938,172.289917 931.373962,172.289917 1012.411987,172.289917 
	C1012.575623,172.644470 1012.739197,172.999008 1012.902771,173.353561 
	C1011.916199,173.965622 1011.004028,174.812943 1009.931152,175.152237 
	C1001.925232,177.684082 993.887451,180.115280 985.120422,182.804871 
	C985.899841,183.409637 985.463074,183.246002 985.423828,183.014847 
	C984.266541,176.203674 984.272888,176.202347 977.245789,176.202133 
	C964.415100,176.201736 951.583008,176.306580 938.754578,176.135468 
	C935.056641,176.086151 933.882935,177.270020 933.890137,181.017227 
	C933.980835,228.006439 934.005371,274.996307 933.787292,321.984802 
	C933.763550,327.098846 935.175049,328.487366 940.221680,328.356262 
	C953.709839,328.005829 967.216248,328.071198 980.708435,328.332550 
	C985.059448,328.416809 986.426819,327.224915 986.384460,322.751862 
	C986.168335,299.925262 986.137451,277.093903 986.381104,254.267838 
	C986.449829,247.825623 986.965759,241.221466 988.517517,235.001129 
	C990.811157,225.806305 1000.744873,220.223038 1009.966614,222.391632 
	C1011.212585,222.684647 1012.682129,225.404526 1012.702393,227.017502 
	C1012.937866,245.843185 1012.915222,264.672119 1012.960815,284.000244 
z"/>
<path fill="#FDD226" opacity="1.000000" stroke="none" 
	d="
M639.423950,188.559021 
	C649.019836,216.395035 658.452576,243.872086 667.885315,271.349152 
	C668.384766,271.426605 668.884216,271.504059 669.383606,271.581543 
	C670.231812,270.054230 671.332458,268.613617 671.891174,266.986908 
	C685.832336,226.401749 699.762024,185.812454 713.523132,145.166107 
	C714.624573,141.912933 715.991333,140.804047 719.440430,140.859970 
	C732.742065,141.075638 746.049316,140.947479 759.667786,140.947479 
	C759.667786,200.377640 759.667786,259.433960 759.667786,318.820007 
	C748.898865,318.820007 738.146057,318.820007 726.464111,318.820007 
	C726.464111,280.034576 726.464111,241.242950 726.464111,202.451340 
	C725.850098,202.273499 725.236145,202.095642 724.622131,201.917801 
	C723.781189,203.392349 722.692078,204.779434 722.136719,206.354660 
	C714.724854,227.376266 707.385681,248.423523 700.032593,269.465851 
	C694.709717,284.698242 689.321045,299.908386 684.135437,315.187408 
	C683.125061,318.164307 681.737793,319.353149 678.488342,319.230896 
	C671.498718,318.967926 664.489563,319.032562 657.494080,319.200378 
	C654.439941,319.273682 652.860168,318.512177 651.747986,315.288086 
	C639.219421,278.969574 626.481689,242.723267 613.796875,206.458694 
	C613.467224,205.516342 613.277710,204.452499 612.699158,203.691315 
	C612.183228,203.012436 611.218262,202.674728 610.451477,202.186462 
	C610.019165,202.985748 609.397949,203.742294 609.204895,204.595703 
	C608.989929,205.545822 609.169128,206.584106 609.169128,207.584015 
	C609.170105,242.748367 609.170227,277.912720 609.170410,313.077087 
	C609.170410,314.879730 609.170349,316.682404 609.170349,318.816040 
	C598.383179,318.816040 587.980774,318.816040 577.247253,318.816040 
	C577.247253,259.690125 577.247253,200.633636 577.247253,141.261917 
	C592.435425,141.261917 607.528870,141.261917 623.090088,141.261917 
	C628.437439,156.783493 633.849060,172.491776 639.423950,188.559021 
z"/>
<path fill="#86F000" opacity="1.000000" stroke="none" 
	d="
M148.038284,168.043533 
	C156.447815,185.296219 157.424973,202.792648 150.651733,220.191544 
	C141.910828,242.645111 123.407234,251.539856 100.759369,252.902603 
	C87.846199,253.679611 74.847977,253.043106 61.251717,253.043106 
	C61.251717,275.180298 61.251717,296.882080 61.251717,318.860107 
	C49.347103,318.860107 38.079281,318.860107 26.386826,318.860107 
	C26.386826,259.844879 26.386826,200.822128 26.386826,141.293564 
	C27.633812,141.188309 29.056265,140.964691 30.478886,140.963623 
	C53.130337,140.946609 75.785568,140.707382 98.432014,141.047119 
	C114.785805,141.292465 129.606308,146.157135 141.144302,158.443924 
	C143.735947,161.203766 145.641144,164.608231 148.038284,168.043533 
M115.969467,212.296387 
	C116.980400,208.976273 118.552101,205.714874 118.906799,202.326065 
	C120.591118,186.233841 115.795273,173.124390 100.241196,171.024017 
	C87.591347,169.315811 74.527023,170.676926 61.472092,170.676926 
	C61.472092,188.249496 61.472092,205.963455 61.472092,223.673630 
	C74.328880,223.673630 86.947021,224.231796 99.481331,223.448425 
	C106.185791,223.029404 112.085297,219.307251 115.969467,212.296387 
z"/>
<path fill="#FDD226" opacity="1.000000" stroke="none" 
	d="
M906.484863,289.720764 
	C909.728088,290.305359 912.705566,291.198425 915.513611,290.823273 
	C918.814453,290.382233 919.686340,291.590149 919.922424,294.433563 
	C920.404358,300.237701 921.251648,306.024628 921.414795,311.833618 
	C921.460144,313.447754 919.978882,316.128326 918.609009,316.596619 
	C907.709656,320.322296 896.433716,321.113037 886.175354,315.467316 
	C881.772034,313.043884 878.818115,307.713623 875.693848,303.354187 
	C874.122192,301.161163 872.979004,299.446716 871.132324,302.410370 
	C859.277893,321.435822 841.433289,323.079193 821.983459,319.121246 
	C807.908142,316.256927 798.152893,307.716522 794.978088,293.510040 
	C789.702026,269.900909 796.953247,254.881668 818.247498,247.206619 
	C828.801453,243.402664 840.155212,241.837677 851.115356,239.131058 
	C855.293274,238.099319 859.517517,237.035629 863.479919,235.402405 
	C869.341064,232.986572 871.312195,229.329376 870.869507,223.225082 
	C870.486206,217.939133 867.444763,214.316910 861.566589,212.963776 
	C848.192627,209.885132 835.802979,212.777817 824.338989,219.916504 
	C820.970764,222.013901 817.869812,224.603058 814.889648,227.241638 
	C812.426697,229.422302 810.680786,229.385086 808.821106,226.608124 
	C805.487183,221.629761 802.132935,216.656235 798.555359,211.853439 
	C796.709961,209.376099 796.800659,207.725845 799.066711,205.507721 
	C812.498840,192.360245 828.688354,185.361923 847.273621,184.113113 
	C859.637573,183.282333 871.948608,184.009354 883.456482,189.410995 
	C894.972900,194.816696 902.096497,204.228256 902.814819,216.555801 
	C904.063049,237.974655 903.681946,259.485992 904.180481,280.954010 
	C904.246643,283.805725 905.461426,286.630737 906.484863,289.720764 
M840.521851,261.933655 
	C830.482727,265.329681 826.426392,270.607300 826.931152,279.616425 
	C827.428345,288.489990 831.779968,293.912567 840.626099,295.479889 
	C844.451538,296.157684 848.677063,296.091858 852.458801,295.223236 
	C864.573364,292.440552 870.991272,283.291412 871.754150,268.327606 
	C872.007507,263.357208 871.794189,258.363037 871.794189,254.045822 
	C860.788269,256.800659 851.036255,259.241638 840.521851,261.933655 
z"/>
<path fill="#85EF00" opacity="1.000000" stroke="none" 
	d="
M189.425842,312.627075 
	C172.308777,300.655182 170.534744,267.230316 186.547424,254.820572 
	C195.640762,247.773254 206.195160,244.547546 217.155853,242.141144 
	C226.072296,240.183548 235.107407,238.609406 243.841309,236.025146 
	C251.336502,233.807419 253.449661,230.015823 252.952255,223.107224 
	C252.547485,217.485031 249.171906,213.804031 242.111389,212.584641 
	C225.564545,209.726883 211.254868,214.862640 198.738525,225.623795 
	C193.409546,230.205444 193.455017,230.255112 189.442902,224.436386 
	C186.607529,220.324310 183.963745,216.059433 180.863342,212.157639 
	C178.549393,209.245560 179.166687,207.411331 181.639648,205.041428 
	C194.932434,192.302551 210.840424,185.419113 229.055344,184.129486 
	C241.417175,183.254288 253.741165,183.960831 265.276001,189.256241 
	C276.815643,194.553909 283.866150,203.867691 284.888336,216.228821 
	C286.188873,231.955795 285.879395,247.818375 286.183777,263.624023 
	C286.302399,269.784973 286.151489,275.950684 286.215820,282.113220 
	C286.293488,289.554321 289.168396,292.331268 296.473694,291.016357 
	C300.959961,290.208862 301.968079,291.654205 302.126770,295.735443 
	C302.333344,301.046539 303.075165,306.345398 303.768799,311.625580 
	C304.136688,314.426147 303.136597,316.097504 300.495087,316.886383 
	C289.999786,320.020966 279.536957,320.541107 269.239624,316.178955 
	C263.541504,313.765106 260.079163,309.171600 257.801605,303.581879 
	C256.659424,300.778687 255.056549,299.362823 253.057144,302.714966 
	C243.388748,318.924500 227.977249,322.257751 211.112732,320.301819 
	C203.787247,319.452209 196.829361,315.432953 189.425842,312.627075 
M253.915543,263.500458 
	C253.915543,260.155090 253.915543,256.809723 253.915543,254.075684 
	C243.198761,256.712097 233.597229,259.007019 224.039749,261.472595 
	C221.651688,262.088654 219.297852,263.050964 217.114319,264.205872 
	C210.741913,267.576294 208.768906,273.318359 209.114487,280.097900 
	C209.480545,287.279419 212.855530,292.363861 219.813705,294.764099 
	C234.125290,299.700867 248.932602,291.913879 252.506836,277.285400 
	C253.520035,273.138702 253.474960,268.733459 253.915543,263.500458 
z"/>
<path fill="#FCD126" opacity="1.000000" stroke="none" 
	d="
M983.063965,200.088791 
	C998.242737,179.760696 1031.421143,180.788467 1046.656006,190.687592 
	C1056.100586,196.824371 1060.588745,206.156982 1062.754028,216.727432 
	C1063.715698,221.422119 1064.141357,226.302139 1064.164307,231.101105 
	C1064.297119,258.933563 1064.240356,286.766907 1064.233521,314.599945 
	C1064.233276,315.902893 1064.098877,317.205841 1064.009399,318.824585 
	C1052.898926,318.824585 1041.986816,318.824585 1030.386108,318.824585 
	C1030.386108,316.758545 1030.386108,314.802338 1030.386108,312.846130 
	C1030.386108,289.513031 1030.386353,266.179932 1030.385864,242.846832 
	C1030.385864,241.013519 1030.395264,239.180054 1030.375610,237.346924 
	C1030.219727,222.891953 1026.271240,215.595230 1016.073975,213.640778 
	C1002.417664,211.023315 989.770752,213.507339 983.026855,225.954758 
	C980.267456,231.047852 978.414246,237.256470 978.245605,243.018951 
	C977.568115,266.166107 977.710510,289.337280 977.553101,312.499573 
	C977.539734,314.472687 977.551331,316.445953 977.551331,318.783325 
	C966.237793,318.783325 955.352112,318.783325 944.146484,318.783325 
	C944.146484,274.492493 944.146484,230.274796 944.146484,185.400955 
	C954.128662,185.400955 963.920410,185.312378 973.704285,185.548309 
	C974.607605,185.570099 976.132812,187.610062 976.217346,188.795074 
	C976.524902,193.106598 976.315613,197.453339 976.361267,201.786148 
	C976.376038,203.194000 976.574890,204.599930 976.689575,206.006729 
	C977.106628,206.188965 977.523743,206.371185 977.940796,206.553406 
	C979.579346,204.494949 981.217834,202.436493 983.063965,200.088791 
z"/>
<path fill="#85EF00" opacity="1.000000" stroke="none" 
	d="
M533.406494,250.558365 
	C554.832520,269.998383 547.931885,305.364594 520.448059,315.743927 
	C496.737366,324.698364 473.341827,322.503052 451.075928,310.292542 
	C444.862000,306.884766 439.768066,302.113373 436.273438,295.127808 
	C442.067383,289.064117 447.842957,282.866638 453.803925,276.852905 
	C456.365021,274.269073 458.228638,276.355194 459.988312,278.322083 
	C469.655304,289.127472 481.927277,293.567352 496.193451,292.871063 
	C498.655731,292.750885 501.138458,292.159668 503.520782,291.471161 
	C508.800629,289.945282 512.118164,286.494202 512.811340,280.918396 
	C513.406982,276.127472 510.746063,271.251495 505.335938,269.122406 
	C499.653870,266.886292 493.560913,265.712616 487.691101,263.931000 
	C479.115936,261.328247 470.235626,259.368195 462.107208,255.740829 
	C449.843750,250.268188 442.649170,240.537857 441.847015,226.623764 
	C441.008240,212.074738 446.214294,200.613022 458.587341,192.629257 
	C479.588318,179.078262 517.901855,181.382477 536.361694,197.301208 
	C542.243591,202.373428 542.244629,202.374451 536.990112,207.970673 
	C533.340942,211.857086 529.608582,215.669266 526.065063,219.649643 
	C523.666138,222.344284 521.769958,222.343842 519.009888,219.864441 
	C508.334442,210.274780 495.812012,208.139969 482.192230,211.699432 
	C476.487946,213.190216 473.493408,216.832809 473.244568,221.753738 
	C473.007355,226.444962 475.734131,231.264160 480.986755,232.820862 
	C491.335724,235.887939 502.057587,237.735428 512.326599,241.020706 
	C519.518311,243.321503 526.214844,247.170197 533.406494,250.558365 
z"/>
<path fill="#85EF00" opacity="1.000000" stroke="none" 
	d="
M370.484070,265.352631 
	C361.101105,262.835754 351.902283,261.022400 343.187042,257.871490 
	C326.761780,251.933105 318.458252,240.411240 318.166504,224.775467 
	C317.855713,208.120041 325.773468,195.441193 341.951385,189.093018 
	C362.046967,181.207565 382.404449,181.758270 402.177185,190.475342 
	C407.069336,192.632126 411.169678,196.637665 415.525635,199.936432 
	C417.802551,201.660736 417.888397,203.523056 415.672211,205.723099 
	C411.182953,210.179611 406.807343,214.765823 402.622406,219.508163 
	C399.998779,222.481293 398.049896,222.221054 395.200806,219.659378 
	C385.131683,210.605850 373.196289,208.446671 360.245361,211.223877 
	C353.546173,212.660477 350.309692,215.980286 349.884644,221.064850 
	C349.385406,227.037445 351.850830,231.140579 358.648621,233.291031 
	C366.234375,235.690720 374.149719,237.026810 381.825043,239.171539 
	C388.530701,241.045334 395.316437,242.898453 401.695953,245.627625 
	C428.943848,257.284424 427.456879,295.412201 407.245941,309.980011 
	C395.631348,318.351654 382.418030,320.945251 368.516693,320.825653 
	C352.585114,320.688599 337.314545,317.625122 324.183899,308.007690 
	C319.737976,304.751312 316.189880,300.269104 311.894684,296.013397 
	C318.530365,289.056061 324.309052,282.864777 330.251434,276.834808 
	C332.496460,274.556702 334.364075,275.991333 336.098083,277.966461 
	C345.648499,288.844635 357.845337,293.545135 372.129608,292.853088 
	C375.389984,292.695129 378.720337,291.842316 381.805695,290.722809 
	C386.233643,289.116272 388.745514,285.648804 389.137085,280.895691 
	C389.548584,275.900757 387.464233,271.942963 383.029419,269.812592 
	C379.173401,267.960236 374.948395,266.876007 370.484070,265.352631 
z"/>
<path fill="#0049AB" opacity="1.000000" stroke="none" 
	d="
M659.858032,221.141342 
	C654.212830,204.739471 648.692871,188.711166 643.018555,172.234711 
	C660.225037,172.234711 676.807434,172.234711 694.128540,172.234711 
	C685.840759,196.386917 677.672668,220.190414 669.504578,243.993896 
	C668.966064,244.037613 668.427551,244.081314 667.889038,244.125031 
	C665.253784,236.588318 662.618469,229.051620 659.858032,221.141342 
z"/>
<path fill="#0049A9" opacity="1.000000" stroke="none" 
	d="
M317.408936,250.530090 
	C323.282013,255.753708 328.935913,260.692139 334.661713,265.693359 
	C323.658417,264.512329 320.119537,274.784241 313.555878,280.737427 
	C311.124542,282.942627 309.365112,284.300323 305.907410,282.864349 
	C302.774933,281.563446 299.232178,281.250397 294.889099,280.283264 
	C295.235474,278.051666 294.915344,274.972839 296.180420,272.829742 
	C302.567108,262.010590 307.853088,250.817688 309.781097,237.728882 
	C312.486725,242.299698 314.838226,246.272293 317.408936,250.530090 
z"/>
<path fill="#0046A5" opacity="1.000000" stroke="none" 
	d="
M373.155884,283.479523 
	C358.984772,285.042023 344.043793,277.690216 340.036407,267.163361 
	C352.211578,270.438171 364.183746,273.582886 376.087311,276.968811 
	C377.376434,277.335480 378.268402,279.098450 379.344604,280.213745 
	C377.419678,281.274475 375.494720,282.335236 373.155884,283.479523 
z"/>
<path fill="#0047A6" opacity="1.000000" stroke="none" 
	d="
M499.561707,282.776367 
	C485.075928,286.086395 469.357300,279.345367 463.140472,266.833496 
	C466.890381,267.979095 470.060516,269.050781 473.286591,269.913269 
	C481.925262,272.222839 490.612732,274.355011 499.215851,276.787445 
	C500.599579,277.178680 501.649567,278.750397 502.853821,279.776428 
	C501.882599,280.733124 500.911377,281.689819 499.561707,282.776367 
z"/>
<path fill="#0046A5" opacity="1.000000" stroke="none" 
	d="
M847.503479,230.491638 
	C838.164001,232.237747 829.236755,233.884766 819.888306,235.609467 
	C822.914490,229.938446 828.286133,226.891022 833.573120,225.197174 
	C840.844666,222.867493 848.670349,222.137192 856.318787,221.229279 
	C857.757385,221.058517 859.478210,223.265350 861.068787,224.375000 
	C859.732117,225.608749 858.593628,227.340775 857.015869,227.968048 
	C854.119080,229.119781 850.963379,229.620453 847.503479,230.491638 
z"/>
<path fill="#0045A1" opacity="1.000000" stroke="none" 
	d="
M705.931396,278.852478 
	C709.160583,269.629333 712.269470,260.777618 715.378296,251.925888 
	C715.741394,251.961258 716.104553,251.996628 716.467651,252.031982 
	C716.613342,253.571793 716.880676,255.111282 716.884766,256.651459 
	C716.909241,265.770874 716.667297,274.896790 716.949585,284.007080 
	C717.076294,288.096161 715.598877,289.288055 711.798157,288.941864 
	C709.022278,288.689026 706.204773,288.892395 702.621460,288.892395 
	C703.798584,285.324280 704.804871,282.274109 705.931396,278.852478 
z"/>
<path fill="#0046A7" opacity="1.000000" stroke="none" 
	d="
M631.576538,286.475220 
	C631.030457,287.522705 630.386536,288.719177 629.680603,288.756958 
	C626.057983,288.950897 622.419434,288.846771 618.371216,288.846771 
	C618.371216,276.109558 618.371216,263.777710 618.371216,251.445862 
	C618.628418,251.354736 618.885620,251.263611 619.142883,251.172485 
	C623.245300,262.811584 627.347778,274.450684 631.576538,286.475220 
z"/>
<path fill="#0045A2" opacity="1.000000" stroke="none" 
	d="
M517.736938,231.476105 
	C518.044434,231.937790 518.038757,232.189789 518.020325,232.631149 
	C506.802307,230.014587 495.585052,227.226608 484.385803,224.368057 
	C483.488953,224.139145 482.716400,223.423294 481.023895,222.425278 
	C488.041687,218.261536 494.141846,218.780716 500.236450,220.029007 
	C507.401489,221.496536 512.408020,226.432693 517.736938,231.476105 
z"/>
<path fill="#0044A0" opacity="1.000000" stroke="none" 
	d="
M394.708679,231.461746 
	C395.047791,231.890717 395.037262,232.176361 395.015320,232.676483 
	C384.651276,230.486649 374.263885,228.193115 363.959778,225.572174 
	C362.165619,225.115814 360.722748,223.278549 359.117615,222.079086 
	C360.957397,221.227966 362.723236,219.908264 364.649353,219.604279 
	C374.701569,218.017883 383.370026,220.900681 390.551331,228.193558 
	C391.698029,229.358047 393.088013,230.282974 394.708679,231.461746 
z"/>
<path fill="#004AAC" opacity="1.000000" stroke="none" 
	d="
M400.012970,325.012238 
	C400.134338,325.017639 400.285370,325.055878 400.269012,325.102539 
	C400.101654,325.110992 400.042603,325.045074 400.012970,325.012238 
z"/>
<path fill="#030601" opacity="1.000000" stroke="none" 
	d="
M115.781883,212.620193 
	C112.085297,219.307251 106.185791,223.029404 99.481331,223.448425 
	C86.947021,224.231796 74.328880,223.673630 61.472092,223.673630 
	C61.472092,205.963455 61.472092,188.249496 61.472092,170.676926 
	C74.527023,170.676926 87.591347,169.315811 100.241196,171.024017 
	C115.795273,173.124390 120.591118,186.233841 118.906799,202.326065 
	C118.552101,205.714874 116.980400,208.976273 115.781883,212.620193 
M90.290100,179.106216 
	C83.693176,179.106216 77.096252,179.106216 70.466347,179.106216 
	C70.466347,191.434097 70.466347,202.990936 70.466347,214.847000 
	C79.153862,214.847000 87.485359,215.277847 95.743515,214.685745 
	C100.713615,214.329407 105.431862,212.263611 107.833984,207.046082 
	C114.578354,192.397079 107.176651,179.900528 90.290100,179.106216 
z"/>
<path fill="#060603" opacity="1.000000" stroke="none" 
	d="
M840.903076,261.808105 
	C851.036255,259.241638 860.788269,256.800659 871.794189,254.045822 
	C871.794189,258.363037 872.007507,263.357208 871.754150,268.327606 
	C870.991272,283.291412 864.573364,292.440552 852.458801,295.223236 
	C848.677063,296.091858 844.451538,296.157684 840.626099,295.479889 
	C831.779968,293.912567 827.428345,288.489990 826.931152,279.616425 
	C826.426392,270.607300 830.482727,265.329681 840.903076,261.808105 
M861.650208,271.148773 
	C861.013794,269.778961 860.146118,267.156769 859.775391,267.225220 
	C853.124573,268.453461 846.450562,269.720032 839.962463,271.601959 
	C836.244385,272.680450 835.668396,276.198883 835.833679,279.780273 
	C835.996765,283.314545 837.982300,285.082001 841.106812,286.141602 
	C850.933960,289.474274 859.397400,283.610565 861.650208,271.148773 
z"/>
<path fill="#020400" opacity="1.000000" stroke="none" 
	d="
M253.915375,263.973633 
	C253.474960,268.733459 253.520035,273.138702 252.506836,277.285400 
	C248.932602,291.913879 234.125290,299.700867 219.813705,294.764099 
	C212.855530,292.363861 209.480545,287.279419 209.114487,280.097900 
	C208.768906,273.318359 210.741913,267.576294 217.114319,264.205872 
	C219.297852,263.050964 221.651688,262.088654 224.039749,261.472595 
	C233.597229,259.007019 243.198761,256.712097 253.915543,254.075684 
	C253.915543,256.809723 253.915543,260.155090 253.915375,263.973633 
z"/>
<path fill="#0049AB" opacity="1.000000" stroke="none" 
	d="
M90.758698,179.110992 
	C107.176651,179.900528 114.578354,192.397079 107.833984,207.046082 
	C105.431862,212.263611 100.713615,214.329407 95.743515,214.685745 
	C87.485359,215.277847 79.153862,214.847000 70.466347,214.847000 
	C70.466347,202.990936 70.466347,191.434097 70.466347,179.106216 
	C77.096252,179.106216 83.693176,179.106216 90.758698,179.110992 
z"/>
<path fill="#0048A8" opacity="1.000000" stroke="none" 
	d="
M861.566406,271.551758 
	C859.397400,283.610565 850.933960,289.474274 841.106812,286.141602 
	C837.982300,285.082001 835.996765,283.314545 835.833679,279.780273 
	C835.668396,276.198883 836.244385,272.680450 839.962463,271.601959 
	C846.450562,269.720032 853.124573,268.453461 859.775391,267.225220 
	C860.146118,267.156769 861.013794,269.778961 861.566406,271.551758 
z"/>
</svg>